<svg width="9" height="10" viewBox="0 0 9 10" fill="none" xmlns="http://www.w3.org/2000/svg">
<g id="Group 2">
<rect id="Rectangle 13" x="3.875" y="2.53623" width="0.57971" height="7.24638" rx="0.289855" fill="#1E1E1E"/>
<path id="Vector 1" d="M5.1509 0.98725C6.22854 2.19535 5.3282 3.70106 5.23955 3.93398C5.1509 4.1669 5.2239 4.73547 5.80944 3.93398C6.39498 3.13249 6.16481 1.37876 5.70812 0.98725C5.25144 0.595742 4.91211 0.680998 5.1509 0.98725Z" fill="#D9D9D9"/>
<path id="Vector 2" d="M3.18113 0.98725C2.10349 2.19535 3.00383 3.70106 3.09248 3.93398C3.18113 4.1669 3.10813 4.73547 2.52259 3.93398C1.93705 3.13249 2.16722 1.37876 2.62391 0.98725C3.08059 0.595742 3.41992 0.680998 3.18113 0.98725Z" fill="#D9D9D9"/>
<path id="Vector 3" d="M2.09519 0.677479C1.01756 2.1272 1.91789 3.93405 2.00654 4.21355C2.09519 4.49306 2.0222 5.17534 1.43666 4.21355C0.851116 3.25176 1.08128 1.14729 1.53797 0.677479C1.99466 0.207669 2.33398 0.309977 2.09519 0.677479Z" fill="#D9D9D9"/>
<path id="Vector 4" d="M6.23879 0.677479C7.31643 2.1272 6.41609 3.93405 6.32744 4.21355C6.23879 4.49306 6.31179 5.17534 6.89733 4.21355C7.48287 3.25176 7.2527 1.14729 6.79602 0.677479C6.33933 0.207669 6 0.309977 6.23879 0.677479Z" fill="#D9D9D9"/>
<path id="Vector 5" d="M7.32473 0.367674C8.40237 2.05901 7.50203 4.16701 7.41338 4.49309C7.32473 4.81918 7.39773 5.61518 7.98327 4.49309C8.56881 3.37101 8.33864 0.915785 7.88195 0.367674C7.42527 -0.180438 7.08594 -0.0610791 7.32473 0.367674Z" fill="#D9D9D9"/>
<path id="Vector 6" d="M1.00925 0.367674C-0.0683807 2.05901 0.831955 4.16701 0.920604 4.49309C1.00925 4.81918 0.936258 5.61518 0.350718 4.49309C-0.234821 3.37101 -0.00465548 0.915785 0.452031 0.367674C0.908719 -0.180438 1.24805 -0.0610791 1.00925 0.367674Z" fill="#D9D9D9"/>
<ellipse id="Ellipse 2" cx="4.16556" cy="2.53622" rx="0.905797" ry="0.905797" fill="#1E1E1E"/>
</g>
</svg>
